<mxfile modified="2019-11-08T05:33:22.871Z" host="www.draw.io" agent="Mozilla/5.0 (Windows NT 10.0; Win64; x64) AppleWebKit/537.36 (KHTML, like Gecko) Chrome/78.0.3904.70 Safari/537.36" etag="Yt3S6B1NAP4xwK-WTxe9" version="12.2.2" type="github" pages="1">
  <diagram name="Page-1" id="c7558073-3199-34d8-9f00-42111426c3f3">
    <mxGraphModel dx="769" dy="441" grid="1" gridSize="10" guides="1" tooltips="1" connect="1" arrows="1" fold="1" page="1" pageScale="1" pageWidth="1169" pageHeight="827" background="#ffffff" math="1" shadow="0">
      <root>
        <mxCell id="0"/>
        <mxCell id="1" parent="0"/>
        <mxCell id="oSbV0K-Lf4DKJN7hUzWf-13" value="" style="rounded=1;whiteSpace=wrap;html=1;dashed=1;" parent="1" vertex="1">
          <mxGeometry x="262" y="110" width="395" height="120" as="geometry"/>
        </mxCell>
        <mxCell id="gI_U6gNHpolD2pj0h8Hz-110" value="" style="rounded=1;whiteSpace=wrap;html=1;rotation=90;" parent="1" vertex="1">
          <mxGeometry x="774" y="33.5" width="89" height="266" as="geometry"/>
        </mxCell>
        <mxCell id="gI_U6gNHpolD2pj0h8Hz-109" value="" style="ellipse;whiteSpace=wrap;html=1;aspect=fixed;fillColor=#f5f5f5;strokeColor=#666666;gradientColor=#b3b3b3;" parent="1" vertex="1">
          <mxGeometry x="702" y="136.5" width="61" height="61" as="geometry"/>
        </mxCell>
        <mxCell id="gI_U6gNHpolD2pj0h8Hz-107" value="" style="ellipse;whiteSpace=wrap;html=1;aspect=fixed;fillColor=#f5f5f5;strokeColor=#666666;gradientColor=#b3b3b3;" parent="1" vertex="1">
          <mxGeometry x="876.5" y="136.5" width="61" height="61" as="geometry"/>
        </mxCell>
        <mxCell id="gI_U6gNHpolD2pj0h8Hz-102" value="&lt;b style=&quot;font-family: &amp;#34;times new roman&amp;#34; ; font-size: 36px ; white-space: normal&quot;&gt;$$\mathbf{x}^{t}$$&lt;/b&gt;" style="text;html=1;strokeColor=none;fillColor=none;align=center;verticalAlign=middle;whiteSpace=wrap;rounded=0;" parent="1" vertex="1">
          <mxGeometry x="891" y="154" width="40" height="20" as="geometry"/>
        </mxCell>
        <mxCell id="gI_U6gNHpolD2pj0h8Hz-113" value="" style="ellipse;whiteSpace=wrap;html=1;aspect=fixed;" parent="1" vertex="1">
          <mxGeometry x="584.5" y="36.5" width="61" height="61" as="geometry"/>
        </mxCell>
        <mxCell id="gI_U6gNHpolD2pj0h8Hz-124" value="&lt;b style=&quot;font-family: &amp;#34;times new roman&amp;#34; ; font-size: 36px ; white-space: normal&quot;&gt;$$\mathbf{z}^t$$&lt;/b&gt;" style="text;html=1;strokeColor=none;fillColor=none;align=center;verticalAlign=middle;whiteSpace=wrap;rounded=0;" parent="1" vertex="1">
          <mxGeometry x="804.5" y="153.5" width="40" height="21" as="geometry"/>
        </mxCell>
        <mxCell id="gI_U6gNHpolD2pj0h8Hz-133" value="" style="endArrow=classic;html=1;exitX=0;exitY=0.5;exitDx=0;exitDy=0;entryX=1;entryY=0.5;entryDx=0;entryDy=0;" parent="1" source="gI_U6gNHpolD2pj0h8Hz-107" target="appPWKXYnGJbebeJ8We3-57" edge="1">
          <mxGeometry width="50" height="50" relative="1" as="geometry">
            <mxPoint x="689" y="16" as="sourcePoint"/>
            <mxPoint x="629.5" y="127.5" as="targetPoint"/>
          </mxGeometry>
        </mxCell>
        <mxCell id="gI_U6gNHpolD2pj0h8Hz-134" value="" style="endArrow=classic;html=1;exitX=0;exitY=0.5;exitDx=0;exitDy=0;entryX=1;entryY=0.5;entryDx=0;entryDy=0;" parent="1" source="appPWKXYnGJbebeJ8We3-57" target="gI_U6gNHpolD2pj0h8Hz-109" edge="1">
          <mxGeometry width="50" height="50" relative="1" as="geometry">
            <mxPoint x="620.5667568261892" y="149.06675682618925" as="sourcePoint"/>
            <mxPoint x="696" y="197.5" as="targetPoint"/>
          </mxGeometry>
        </mxCell>
        <mxCell id="gI_U6gNHpolD2pj0h8Hz-137" value="&lt;b style=&quot;font-family: &amp;#34;times new roman&amp;#34; ; font-size: 36px ; white-space: normal&quot;&gt;$$\mathbf{\psi}$$&lt;/b&gt;" style="text;html=1;strokeColor=none;fillColor=none;align=center;verticalAlign=middle;whiteSpace=wrap;rounded=0;" parent="1" vertex="1">
          <mxGeometry x="594.5" y="153" width="40" height="20" as="geometry"/>
        </mxCell>
        <mxCell id="gI_U6gNHpolD2pj0h8Hz-138" value="&lt;b style=&quot;font-family: &amp;#34;times new roman&amp;#34; ; font-size: 36px ; white-space: normal&quot;&gt;$$\mathbf{y}^{t}$$&lt;/b&gt;" style="text;html=1;strokeColor=none;fillColor=none;align=center;verticalAlign=middle;whiteSpace=wrap;rounded=0;" parent="1" vertex="1">
          <mxGeometry x="716.5" y="154.5" width="40" height="20" as="geometry"/>
        </mxCell>
        <mxCell id="lwspSuwfy0I4crED-ueR-1" value="" style="endArrow=classic;html=1;entryX=0;entryY=0.5;entryDx=0;entryDy=0;exitX=1;exitY=0.5;exitDx=0;exitDy=0;" parent="1" source="appPWKXYnGJbebeJ8We3-56" target="gI_U6gNHpolD2pj0h8Hz-109" edge="1">
          <mxGeometry width="50" height="50" relative="1" as="geometry">
            <mxPoint x="629" y="208.5" as="sourcePoint"/>
            <mxPoint x="578" y="218.5" as="targetPoint"/>
          </mxGeometry>
        </mxCell>
        <mxCell id="appPWKXYnGJbebeJ8We3-1" value="&lt;span style=&quot;color: rgb(51 , 51 , 51)&quot;&gt;&lt;font style=&quot;font-size: 36px&quot;&gt;$$\theta$$&lt;/font&gt;&lt;/span&gt;" style="text;html=1;strokeColor=none;fillColor=none;align=center;verticalAlign=middle;whiteSpace=wrap;rounded=0;" parent="1" vertex="1">
          <mxGeometry x="594" y="58.5" width="40" height="20" as="geometry"/>
        </mxCell>
        <mxCell id="appPWKXYnGJbebeJ8We3-56" value="" style="ellipse;whiteSpace=wrap;html=1;aspect=fixed;" parent="1" vertex="1">
          <mxGeometry x="584.5" y="136" width="61" height="61" as="geometry"/>
        </mxCell>
        <mxCell id="appPWKXYnGJbebeJ8We3-57" value="" style="ellipse;whiteSpace=wrap;html=1;aspect=fixed;" parent="1" vertex="1">
          <mxGeometry x="789" y="136.5" width="61" height="61" as="geometry"/>
        </mxCell>
        <mxCell id="zIGtod5l8YAx0GVgsVrF-4" value="" style="endArrow=classic;html=1;exitX=1;exitY=1;exitDx=0;exitDy=0;entryX=0;entryY=0;entryDx=0;entryDy=0;" parent="1" source="gI_U6gNHpolD2pj0h8Hz-113" target="appPWKXYnGJbebeJ8We3-57" edge="1">
          <mxGeometry width="50" height="50" relative="1" as="geometry">
            <mxPoint x="650.5" y="177.5" as="sourcePoint"/>
            <mxPoint x="784" y="77.5" as="targetPoint"/>
          </mxGeometry>
        </mxCell>
        <mxCell id="zIGtod5l8YAx0GVgsVrF-5" value="" style="endArrow=classic;html=1;exitX=0.5;exitY=1;exitDx=0;exitDy=0;entryX=0.5;entryY=0;entryDx=0;entryDy=0;" parent="1" source="gI_U6gNHpolD2pj0h8Hz-113" target="appPWKXYnGJbebeJ8We3-56" edge="1">
          <mxGeometry width="50" height="50" relative="1" as="geometry">
            <mxPoint x="586" y="100.5" as="sourcePoint"/>
            <mxPoint x="627" y="120.5" as="targetPoint"/>
          </mxGeometry>
        </mxCell>
        <mxCell id="oSbV0K-Lf4DKJN7hUzWf-1" value="" style="rounded=1;whiteSpace=wrap;html=1;rotation=90;" parent="1" vertex="1">
          <mxGeometry x="365.5" y="33.5" width="89" height="266" as="geometry"/>
        </mxCell>
        <mxCell id="oSbV0K-Lf4DKJN7hUzWf-2" value="" style="ellipse;whiteSpace=wrap;html=1;aspect=fixed;fillColor=#f5f5f5;strokeColor=#666666;gradientColor=#b3b3b3;" parent="1" vertex="1">
          <mxGeometry x="293.5" y="136.5" width="61" height="61" as="geometry"/>
        </mxCell>
        <mxCell id="oSbV0K-Lf4DKJN7hUzWf-3" value="" style="ellipse;whiteSpace=wrap;html=1;aspect=fixed;fillColor=#f5f5f5;strokeColor=#666666;gradientColor=#b3b3b3;" parent="1" vertex="1">
          <mxGeometry x="468" y="136.5" width="61" height="61" as="geometry"/>
        </mxCell>
        <mxCell id="oSbV0K-Lf4DKJN7hUzWf-4" value="&lt;b style=&quot;font-family: &amp;#34;times new roman&amp;#34; ; font-size: 36px ; white-space: normal&quot;&gt;$$\mathbf{x}^{s}$$&lt;/b&gt;" style="text;html=1;strokeColor=none;fillColor=none;align=center;verticalAlign=middle;whiteSpace=wrap;rounded=0;" parent="1" vertex="1">
          <mxGeometry x="483.5" y="154.5" width="40" height="20" as="geometry"/>
        </mxCell>
        <mxCell id="oSbV0K-Lf4DKJN7hUzWf-5" value="&lt;b style=&quot;font-family: &amp;#34;times new roman&amp;#34; ; font-size: 36px ; white-space: normal&quot;&gt;$$\mathbf{z}^{s}$$&lt;/b&gt;" style="text;html=1;strokeColor=none;fillColor=none;align=center;verticalAlign=middle;whiteSpace=wrap;rounded=0;" parent="1" vertex="1">
          <mxGeometry x="395.5" y="153.5" width="40" height="21" as="geometry"/>
        </mxCell>
        <mxCell id="oSbV0K-Lf4DKJN7hUzWf-6" value="" style="endArrow=classic;html=1;exitX=0;exitY=0.5;exitDx=0;exitDy=0;entryX=1;entryY=0.5;entryDx=0;entryDy=0;" parent="1" source="oSbV0K-Lf4DKJN7hUzWf-3" target="oSbV0K-Lf4DKJN7hUzWf-9" edge="1">
          <mxGeometry width="50" height="50" relative="1" as="geometry">
            <mxPoint x="280.5" y="16" as="sourcePoint"/>
            <mxPoint x="221" y="127.5" as="targetPoint"/>
          </mxGeometry>
        </mxCell>
        <mxCell id="oSbV0K-Lf4DKJN7hUzWf-7" value="" style="endArrow=classic;html=1;exitX=0;exitY=0.5;exitDx=0;exitDy=0;entryX=1;entryY=0.5;entryDx=0;entryDy=0;" parent="1" source="oSbV0K-Lf4DKJN7hUzWf-9" target="oSbV0K-Lf4DKJN7hUzWf-2" edge="1">
          <mxGeometry width="50" height="50" relative="1" as="geometry">
            <mxPoint x="212.06675682618925" y="149.06675682618925" as="sourcePoint"/>
            <mxPoint x="287.5" y="197.5" as="targetPoint"/>
          </mxGeometry>
        </mxCell>
        <mxCell id="oSbV0K-Lf4DKJN7hUzWf-8" value="&lt;b style=&quot;font-family: &amp;#34;times new roman&amp;#34; ; font-size: 36px ; white-space: normal&quot;&gt;$$\mathbf{y}^{s}$$&lt;/b&gt;" style="text;html=1;strokeColor=none;fillColor=none;align=center;verticalAlign=middle;whiteSpace=wrap;rounded=0;" parent="1" vertex="1">
          <mxGeometry x="309.5" y="154" width="40" height="20" as="geometry"/>
        </mxCell>
        <mxCell id="oSbV0K-Lf4DKJN7hUzWf-9" value="" style="ellipse;whiteSpace=wrap;html=1;aspect=fixed;" parent="1" vertex="1">
          <mxGeometry x="380.5" y="136.5" width="61" height="61" as="geometry"/>
        </mxCell>
        <mxCell id="oSbV0K-Lf4DKJN7hUzWf-10" value="" style="endArrow=classic;html=1;exitX=0;exitY=1;exitDx=0;exitDy=0;entryX=1;entryY=0;entryDx=0;entryDy=0;" parent="1" source="gI_U6gNHpolD2pj0h8Hz-113" target="oSbV0K-Lf4DKJN7hUzWf-9" edge="1">
          <mxGeometry width="50" height="50" relative="1" as="geometry">
            <mxPoint x="646.5667568261892" y="98.56675682618925" as="sourcePoint"/>
            <mxPoint x="807.9332431738108" y="155.43324317381075" as="targetPoint"/>
          </mxGeometry>
        </mxCell>
        <mxCell id="oSbV0K-Lf4DKJN7hUzWf-11" value="" style="endArrow=classic;html=1;exitX=0.5;exitY=1;exitDx=0;exitDy=0;entryX=0.5;entryY=1;entryDx=0;entryDy=0;" parent="1" source="oSbV0K-Lf4DKJN7hUzWf-2" target="appPWKXYnGJbebeJ8We3-56" edge="1">
          <mxGeometry width="50" height="50" relative="1" as="geometry">
            <mxPoint x="300" y="240" as="sourcePoint"/>
            <mxPoint x="610" y="230" as="targetPoint"/>
            <Array as="points">
              <mxPoint x="324" y="220"/>
              <mxPoint x="615" y="220"/>
            </Array>
          </mxGeometry>
        </mxCell>
        <mxCell id="oSbV0K-Lf4DKJN7hUzWf-12" value="" style="endArrow=classic;html=1;exitX=1;exitY=0.5;exitDx=0;exitDy=0;entryX=0;entryY=0.5;entryDx=0;entryDy=0;" parent="1" source="oSbV0K-Lf4DKJN7hUzWf-3" target="appPWKXYnGJbebeJ8We3-56" edge="1">
          <mxGeometry width="50" height="50" relative="1" as="geometry">
            <mxPoint x="646.5667568261892" y="98.56675682618925" as="sourcePoint"/>
            <mxPoint x="580" y="167" as="targetPoint"/>
          </mxGeometry>
        </mxCell>
      </root>
    </mxGraphModel>
  </diagram>
</mxfile>
